<svg xmlns="http://www.w3.org/2000/svg" viewBox="0 0 259.41 123.66"><defs><style>.cls-1{fill:#c29709;}</style></defs><title>Asset 1</title><g id="Layer_2" data-name="Layer 2"><g id="Layer_1-2" data-name="Layer 1"><path class="cls-1" d="M0,118.9H18.87V2.62H0V.24H97.24V29.65H95.37A84.66,84.66,0,0,0,90.61,18a32,32,0,0,0-6.12-8.5A22.67,22.67,0,0,0,76,4.32a36.79,36.79,0,0,0-11.9-1.7H35.87V57.7H46.92a38.25,38.25,0,0,0,9.52-1,14.5,14.5,0,0,0,6.71-3.82,22.62,22.62,0,0,0,4.76-7.65,93.28,93.28,0,0,0,3.83-12.5h1.87V85.58H71.74c-.8-3.28-1.62-6.46-2.47-9.52A29.37,29.37,0,0,0,65.7,67.9a16.84,16.84,0,0,0-6.12-5.69,20.32,20.32,0,0,0-9.94-2.13H35.87V118.9H54.74v2.38H0Z"/><path class="cls-1" d="M78.71,118.9H91.8V50.73H78.71V48.35h27.71V118.9h13.09v2.38H78.71Z"/><path class="cls-1" d="M123.59,97.48h1.87a62.94,62.94,0,0,0,3.06,8.25,29.37,29.37,0,0,0,5,7.65,24.77,24.77,0,0,0,7.74,5.69,25.18,25.18,0,0,0,11,2.21A15.33,15.33,0,0,0,162,118q4.25-3.31,4.25-10.8,0-6.45-3.32-9.09a25.82,25.82,0,0,0-7.73-4.17L142,89.32q-2.55-.84-5.52-2.12a20,20,0,0,1-5.53-3.57,17.49,17.49,0,0,1-4.17-5.87,22.52,22.52,0,0,1-1.61-9.18A20.92,20.92,0,0,1,127,59.74a22.54,22.54,0,0,1,12.83-11.9,27.61,27.61,0,0,1,9.78-1.7,24.6,24.6,0,0,1,6,.6c1.53.4,2.87.79,4,1.19s2.15.79,3.06,1.19a8,8,0,0,0,3.23.59,3,3,0,0,0,2.72-1.36h1.87V67.73h-1.87a72.16,72.16,0,0,0-2.72-7.22,29.43,29.43,0,0,0-3.65-6.21A14.89,14.89,0,0,0,157,50.05a16.7,16.7,0,0,0-7.39-1.53q-8.16,0-12.66,3.66A11.92,11.92,0,0,0,132.43,62q0,5.44,3.82,8.25a39.91,39.91,0,0,0,11.31,5.18L160,79.46a36,36,0,0,1,13.09,7.48q5.1,4.77,5.1,12.58a23.85,23.85,0,0,1-1.79,9,21.64,21.64,0,0,1-5.27,7.74,26.73,26.73,0,0,1-8.5,5.35,30.2,30.2,0,0,1-11.47,2,29.14,29.14,0,0,1-6.89-.76q-3.13-.77-5.78-1.62c-1.75-.56-3.37-1.1-4.84-1.61a12.58,12.58,0,0,0-4.08-.77,4,4,0,0,0-2.72.77,7.15,7.15,0,0,0-1.36,1.61h-1.87Z"/><path class="cls-1" d="M173.56,118.9h13.09L186.38,2.38H173.29V0H201l.27,80h1.87L237,50.73H224.9V48.35h26.35v2.38h-10.2L214.53,73.51,252.1,118.9h7.31v2.38H221.16V118.9h12.07L203.14,82.35h-1.87V118.9h9.35v2.38H173.56Z"/></g></g></svg>